<svg xmlns="http://www.w3.org/2000/svg" xmlns:xlink="http://www.w3.org/1999/xlink" version="1.1" id="Layer_1" x="0px" y="0px" width="150" height="27" viewBox="0 0 150 27" enable-background="new 0 0 150 27" xml:space="preserve">
<g>
	<g>
		<g>
			<path fill="#FFFFFF" d="M60.094,21.171c-1.734,1.639-3.767,2.457-6.1,2.457c-2.334,0-4.262-0.718-5.786-2.157     c-1.524-1.438-2.286-3.366-2.286-5.786c0-2.419,0.776-4.343,2.329-5.772c1.552-1.428,3.386-2.143,5.5-2.143     s3.909,0.638,5.386,1.914c1.476,1.277,2.214,3.029,2.214,5.257v2.286h-11.2c0.133,0.838,0.571,1.524,1.314,2.057     c0.743,0.534,1.581,0.8,2.514,0.8c1.504,0,2.743-0.504,3.714-1.514L60.094,21.171z M55.979,12.057     c-0.591-0.495-1.31-0.743-2.157-0.743c-0.848,0-1.624,0.257-2.329,0.771c-0.705,0.514-1.114,1.21-1.229,2.086h6.743     C56.912,13.257,56.569,12.552,55.979,12.057z"/>
			<path fill="#FFFFFF" d="M71.808,19.829c1.429,0,2.714-0.714,3.857-2.143l2.543,2.857c-1.981,2.057-4.124,3.086-6.429,3.086     c-2.305,0-4.253-0.728-5.843-2.186c-1.59-1.457-2.386-3.362-2.386-5.714s0.805-4.267,2.414-5.743     c1.61-1.476,3.519-2.214,5.729-2.214c1.104,0,2.224,0.228,3.358,0.686c1.133,0.457,2.129,1.133,2.986,2.028L75.808,13.4     c-0.495-0.59-1.1-1.047-1.814-1.371c-0.714-0.324-1.424-0.486-2.129-0.486c-1.124,0-2.09,0.367-2.9,1.1     c-0.81,0.734-1.214,1.753-1.214,3.058c0,1.304,0.405,2.319,1.214,3.042C69.775,19.467,70.722,19.829,71.808,19.829z"/>
			<path fill="#FFFFFF" d="M96.18,15.714c0,2.229-0.772,4.105-2.315,5.629c-1.543,1.524-3.481,2.286-5.814,2.286     c-2.334,0-4.271-0.761-5.815-2.286c-1.543-1.524-2.314-3.4-2.314-5.629s0.771-4.109,2.314-5.643c1.543-1.533,3.481-2.3,5.815-2.3     c2.333,0,4.271,0.767,5.814,2.3S96.18,13.485,96.18,15.714z M84.237,15.714c0,1.257,0.357,2.282,1.071,3.072     c0.714,0.791,1.629,1.186,2.743,1.186s2.029-0.395,2.743-1.186c0.714-0.79,1.072-1.814,1.072-3.072s-0.357-2.286-1.072-3.086     c-0.714-0.8-1.628-1.2-2.743-1.2s-2.029,0.4-2.743,1.2C84.594,13.429,84.237,14.457,84.237,15.714z"/>
			<path fill="#FFFFFF" d="M105.508,23.628c-1.819,0-3.443-0.771-4.871-2.314c-1.429-1.543-2.143-3.457-2.143-5.743     c0-2.286,0.695-4.157,2.086-5.614c1.39-1.457,3.019-2.186,4.886-2.186c1.867,0,3.391,0.657,4.572,1.971V2.2h4.285v21.2h-4.285     v-2.029C108.836,22.876,107.327,23.628,105.508,23.628z M102.808,15.743c0,1.239,0.371,2.253,1.114,3.043     c0.743,0.791,1.61,1.186,2.6,1.186c0.99,0,1.833-0.395,2.529-1.186c0.695-0.79,1.043-1.81,1.043-3.057s-0.348-2.286-1.043-3.115     c-0.696-0.828-1.548-1.243-2.557-1.243c-1.01,0-1.876,0.419-2.6,1.257C103.169,13.467,102.808,14.505,102.808,15.743z"/>
			<path fill="#FFFFFF" d="M131.693,21.171c-1.734,1.639-3.767,2.457-6.1,2.457c-2.334,0-4.262-0.718-5.786-2.157     c-1.524-1.438-2.286-3.366-2.286-5.786c0-2.419,0.776-4.343,2.329-5.772c1.552-1.428,3.386-2.143,5.5-2.143     s3.909,0.638,5.386,1.914c1.476,1.277,2.214,3.029,2.214,5.257v2.286h-11.2c0.133,0.838,0.571,1.524,1.314,2.057     c0.743,0.534,1.581,0.8,2.514,0.8c1.504,0,2.743-0.504,3.714-1.514L131.693,21.171z M127.579,12.057     c-0.591-0.495-1.31-0.743-2.157-0.743c-0.848,0-1.624,0.257-2.329,0.771c-0.705,0.514-1.114,1.21-1.229,2.086h6.743     C128.512,13.257,128.169,12.552,127.579,12.057z"/>
		</g>
		<g>
			<polygon fill="#FFFFFF" points="35.98,13.514 32.894,3.429 28.237,3.429 24.694,14.914 20.751,3.429 15.923,3.429 22.894,23.4      26.208,23.4 30.551,9.514 33.804,19.846    "/>
		</g>
	</g>
	<g>
		<path fill="#61C2AC" d="M0,15.371v-3.914l13.886-6.543v4.2l-9.172,4.229l9.172,4.343v4.228L0,15.371z"/>
		<path fill="#61C2AC" d="M150,11.457v3.914l-13.886,6.543v-4.228l9.172-4.343l-9.172-4.229v-4.2L150,11.457z"/>
		<polygon fill="#61C2AC" points="32.65,26.6 41.655,0.4 46.483,0.4 37.363,26.6   "/>
	</g>
</g>
</svg>